/* XPM */
static const char *result[] = {
/* columns rows colors chars-per-pixel */
"32 32 8 1 ",
"  c #754C60",
". c #90625D",
"X c #BE9F8A",
"o c #D99A9A",
"O c #DCB98A",
"+ c #E8B5AC",
"@ c #F3E5C2",
"# c #C0D470",
/* pixels */
"################################",
"################################",
"################################",
"################################",
"################################",
"################################",
"################################",
"########..##..##################",
"#######.@.##.@.#################",
"###..##.@....@.#..##############",
"##.@@..@@OOOOO..@@.#############",
"##.@@.@@@OOOOO@@@@.....#########",
"##.++.@ @@O OOO@++.@OOO..#######",
"###..@@ @@@ OOO...@@OOOOO.######",
"####.@@@@@@@@@@@@@@@@OOOO.######",
"####.++++++@@@@@@@@@@@@OO..#####",
"####.+o++o++@@.@@OO@@@@@@.O.####",
"####.+++++++@.@@OOOO@@@@@..O.###",
"#####........@@@@OO@@@@@@.#..###",
"##########.OOO@@@@@@@OOOO.######",
"##########.OOOOOOOOOOOOOO.######",
"##########.OO...OO....OO.#######",
"##########.OO.#.OO.##.OO.#######",
"###########..###..####..########",
"################################",
"################################",
"################################",
"################################",
"################################",
"################################",
"################################",
"################################"
};
