/* XPM */
static const char *result[] = {
/* columns rows colors chars-per-pixel */
"32 32 8 1 ",
"  c #754C60",
". c #90625D",
"X c #BE9F8A",
"o c #D99A9A",
"O c #DCB98A",
"+ c #E8B5AC",
"@ c #F3E5C2",
"# c #C0D470",
/* pixels */
"################################",
"################################",
"################################",
"################################",
"################################",
"################################",
"################################",
"################################",
"##################..##..########",
"#################.@.##.@.#######",
"##############..#.@....@.##..###",
"#########.....@@..OOOOO@@..@@.##",
"#######..OOO@.@@@@OOOOO@@@.@@.##",
"######.OOOOO@.++@OOO O@@ @.++.##",
"######.OOOO@@@...OOO @@@ @@..###",
"#####..OO@@@@@@@@@@@@@@@@@@.####",
"####.O.@@@@@@OO@@@@@@++++++.####",
"###.O..@@@@@OOOO@.@@++o++o+.####",
"###..#.@@@@@@OO@@@.@+++++++.####",
"######.OOOO@@@@@@@O........#####",
"#####.OOOOOOOOOOOOOO.###########",
"####.OOO..........OOO.##########",
"####.OO.##.XX.#.XX.OO.##########",
"#####..####..###..#..###########",
"################################",
"################################",
"################################",
"################################",
"################################",
"################################",
"################################",
"################################"
};
