/* XPM */
static char *_173b9d277d04740c2e4b54d7141bc21szEsoDpxEdsJR6Cf[] = {
/* columns rows colors chars-per-pixel */
"32 32 6 1 ",
"  c #C0D470",
". c #5F2A32",
"X c #C85768",
"o c #FF758A",
"O c #FF8799",
"+ c #FF99A8",
/* pixels */
"                                ",
"                                ",
"                                ",
"                                ",
"                                ",
"                                ",
"                                ",
"         ......   ......        ",
"        .XXXXXX. .XXXXXX.       ",
"       .XooooooX.XooooooX.      ",
"      .XooOOOOooXooOOOOooX.     ",
"      .XoOO++OOoooOOOOOOoX.     ",
"     .XoOO++OOOOOOOOOOOOOoX.    ",
"     .XoO++OOOOOOOOOOOOOOoX.    ",
"     .XoOOOOOOOOOOOOOOOOOoX.    ",
"     .XooOOOOOOOOOOOOOOOooX.    ",
"      .XooOOOOOOOOOOOOOooX.     ",
"      .XXooOOOOOOOOOOOooXX.     ",
"       .XXooOOOOOOOOOooXX.      ",
"        .XXooOOOOOOOooXX.       ",
"         .XXooOOOOOooXX.        ",
"          .XXooOOOooXX.         ",
"           .XXooOooXX.          ",
"            .XXoooXX.           ",
"             .XXoXX.            ",
"              .XXX.             ",
"               ...              ",
"                                ",
"                                ",
"                                ",
"                                ",
"                                "
};
