/* XPM */
static const char *result[] = {
/* columns rows colors chars-per-pixel */
"32 32 5 1 ",
"  c #5C4E92",
". c #766DAA",
"X c #DDD5DE",
"o c #F3F2C0",
"O c #C0D470",
/* pixels */
"OOOOOOOOOOOOOOOOOOOOOOOOOOOOOOOO",
"OOOOOOOOOOOOOOOOOOOOOOOOOOOOOOOO",
"OOOOOOOOOOOOOOOOOOOOOOOOOOOOOOOO",
"OOOOOOOOOOOOOOOOOOOOOOOOOOOOOOOO",
"OOOOOOOOOOOOOOOOOOOOOOOOOOOOOOOO",
"OOOOOOOOOOOOOOOOOOOOOOOOOOOOOOOO",
"OOOOOOOOOOOOOOOOOOOOOOOOOOOOOOOO",
"OOOOOOOOOOOOOOOOOOOOOOOOOOOOOOOO",
"OOOOOOOOOOO   OOOO   OOOOOOOOOOO",
"OOOOOOOOOO ooo OO ooo OOOOOOOOOO",
"OOOOOOOOOO ooo    ooo OOOOOOOOOO",
"OOOOOOOOOO oooXXXXooo OOOOOOOOOO",
"OOOOOOOOOO oooooooooo OOOOOOOOOO",
"OOOOOOOOOO oooooooooo OOOOOOOOOO",
"OOOOOOOOO  oooooooooo  OOOOOOOOO",
"OOOOOOOOOO oooooooooo OOOOOOOOOO",
"OOOOOOOOO  oooooooooo  OOOOOOOOO",
"OOOOOOOOOO oooooooooo OOOOOOOOOO",
"OOOOOOOOOOO  ......   OOOOOOOOOO",
"OOOOOOOOOOO  ..  ..oX OOOOOOOOOO",
"OOOOOOOOOO Xoo oo oo OOOOOOOOOOO",
"OOOOOOOOOO Xo ooooo OOOOOOOOOOOO",
"OOOOOOOOOO       XX OOOOOOOOOOOO",
"OOOOOOOOOOOOOOOOO  OOOOOOOOOOOOO",
"OOOOOOOOOOOOOOOOOOOOOOOOOOOOOOOO",
"OOOOOOOOOOOOOOOOOOOOOOOOOOOOOOOO",
"OOOOOOOOOOOOOOOOOOOOOOOOOOOOOOOO",
"OOOOOOOOOOOOOOOOOOOOOOOOOOOOOOOO",
"OOOOOOOOOOOOOOOOOOOOOOOOOOOOOOOO",
"OOOOOOOOOOOOOOOOOOOOOOOOOOOOOOOO",
"OOOOOOOOOOOOOOOOOOOOOOOOOOOOOOOO",
"OOOOOOOOOOOOOOOOOOOOOOOOOOOOOOOO"
};
